<?xml version="1.0" standalone="no"?>
<!DOCTYPE svg PUBLIC "-//W3C//DTD SVG 20010904//EN"
 "http://www.w3.org/TR/2001/REC-SVG-20010904/DTD/svg10.dtd">
<svg version="1.0" xmlns="http://www.w3.org/2000/svg"
 width="800.000000pt" height="800.000000pt" viewBox="0 0 800.000000 800.000000"
 preserveAspectRatio="xMidYMid meet">
<metadata>
Created by potrace 1.11, written by Peter Selinger 2001-2013
</metadata>
<g transform="translate(0.000000,800.000000) scale(0.100000,-0.100000)"
fill="#000000" stroke="none">
<path d="M5295 6688 c-27 -15 -48 -38 -61 -68 -7 -17 -10 -257 -10 -755 1
-711 2 -731 21 -764 38 -64 52 -66 426 -66 317 1 337 2 370 21 66 39 63 2 63
814 0 707 0 736 -19 767 -36 62 -46 63 -427 63 -233 -1 -349 -4 -363 -12z"/>
<path d="M3837 6675 c-7 -5 -37 -44 -66 -85 -30 -41 -58 -76 -63 -78 -4 -2 -8
-8 -8 -12 0 -8 -60 -93 -118 -167 -9 -12 -24 -31 -32 -43 -33 -47 -201 -276
-215 -293 -8 -9 -15 -21 -15 -27 0 -5 -6 -13 -13 -17 -7 -4 -30 -34 -51 -65
-21 -32 -47 -66 -57 -77 -11 -11 -19 -23 -19 -25 0 -3 -7 -14 -15 -23 -8 -10
-105 -142 -215 -293 -111 -151 -209 -286 -220 -300 -15 -21 -69 -94 -164 -225
-56 -76 -225 -305 -241 -327 -11 -14 -27 -35 -35 -47 -8 -12 -71 -97 -138
-189 -68 -92 -131 -179 -140 -194 -10 -16 -20 -28 -24 -28 -5 0 -8 -7 -8 -15
0 -8 -3 -15 -7 -15 -5 0 -24 -23 -43 -52 -19 -29 -42 -59 -50 -68 -8 -9 -35
-45 -60 -80 -47 -67 -194 -268 -207 -285 -5 -5 -33 -44 -63 -85 -30 -41 -58
-79 -63 -85 -4 -5 -50 -68 -102 -140 -53 -71 -101 -137 -108 -145 -6 -9 -28
-38 -47 -65 -19 -28 -38 -51 -42 -53 -4 -2 -8 -8 -8 -12 0 -11 -151 -214 -162
-218 -4 -2 -8 -8 -8 -14 0 -8 -45 -74 -60 -88 -6 -5 -193 -262 -243 -332 -15
-22 -32 -45 -37 -51 -11 -12 -153 -205 -180 -244 -32 -46 -142 -196 -151 -207
-5 -6 -31 -40 -57 -76 -26 -36 -50 -66 -54 -68 -5 -2 -8 -8 -8 -14 0 -5 -6
-15 -12 -22 -7 -8 -20 -23 -28 -35 -8 -12 -39 -55 -68 -94 -30 -40 -67 -91
-83 -114 l-29 -41 53 -12 c105 -24 123 -29 202 -50 44 -11 89 -23 100 -25 40
-9 111 -27 163 -42 l53 -15 22 28 c12 16 91 125 175 244 85 118 160 224 168
235 8 11 66 92 129 180 62 88 122 171 132 185 10 14 69 97 132 185 63 88 118
162 122 163 5 2 9 7 9 12 0 7 288 415 339 480 l19 25 879 0 c483 0 877 -3 877
-8 -1 -4 -5 -35 -9 -70 -4 -34 -9 -71 -11 -82 -1 -11 -6 -42 -9 -70 -3 -27 -8
-68 -11 -90 -3 -22 -7 -53 -9 -70 -11 -100 -16 -143 -20 -165 -5 -34 -14 -96
-19 -145 -3 -22 -8 -56 -10 -75 -8 -50 -26 -189 -31 -238 -3 -23 -7 -61 -10
-84 -2 -23 -9 -77 -15 -120 -16 -111 -18 -133 -30 -228 -6 -47 -13 -96 -15
-110 -2 -14 -6 -47 -10 -75 -3 -27 -8 -62 -11 -78 -4 -24 -2 -27 18 -22 13 2
34 7 48 9 14 3 36 8 50 11 14 3 36 7 50 10 30 5 57 11 320 65 113 23 208 45
212 48 4 4 10 34 13 67 7 79 14 152 19 195 2 19 7 64 11 100 3 36 8 76 10 90
2 14 6 54 10 90 10 104 16 163 20 190 2 14 6 54 9 90 4 36 8 82 11 103 3 20 7
61 10 90 3 28 7 70 10 92 8 74 15 140 20 195 3 30 7 71 10 90 2 19 7 64 10
100 3 36 8 72 10 80 2 8 7 52 10 97 3 45 8 91 10 101 2 11 6 49 9 84 4 34 8
79 10 98 3 19 7 62 11 95 3 33 8 74 10 90 2 17 7 62 10 100 3 39 8 81 10 95 3
14 7 50 10 80 9 107 15 165 19 195 3 17 8 59 11 95 4 36 9 81 11 100 3 19 7
58 10 85 2 28 6 66 8 85 3 19 8 64 11 100 4 36 8 83 11 105 5 43 10 86 19 180
4 33 8 77 11 98 8 69 14 131 19 187 3 30 7 71 10 90 5 36 15 130 20 190 6 63
23 222 30 270 2 14 7 57 10 95 4 39 9 81 10 95 1 14 6 57 10 95 4 39 8 81 10
95 2 14 6 50 9 80 3 30 8 78 11 105 14 126 18 169 31 295 2 25 6 59 8 75 2 17
5 48 7 70 l4 40 -382 0 c-241 0 -387 -4 -396 -10z m93 -747 c-4 -24 -11 -74
-15 -113 -4 -38 -8 -72 -10 -75 -2 -3 -6 -39 -10 -80 -4 -41 -8 -82 -10 -90
-4 -22 -17 -121 -20 -150 -3 -34 -15 -129 -20 -160 -2 -14 -7 -50 -10 -80 -3
-30 -8 -66 -10 -80 -3 -22 -8 -58 -21 -165 -2 -16 -6 -52 -10 -80 -4 -27 -8
-61 -9 -75 -4 -36 -15 -119 -20 -160 -3 -19 -7 -54 -10 -78 -3 -23 -7 -55 -9
-70 -5 -30 -15 -110 -22 -175 -2 -23 -10 -87 -18 -142 -8 -55 -16 -125 -20
-155 -3 -30 -8 -68 -11 -85 -2 -16 -7 -50 -9 -75 -4 -41 -10 -88 -21 -165 -3
-16 -8 -59 -11 -95 -3 -36 -7 -66 -9 -68 -2 -3 -625 -4 -1238 -2 l-218 0 48
68 c26 37 51 69 55 70 5 2 8 8 8 14 0 8 27 48 63 93 4 5 30 42 57 80 27 39 53
75 57 81 4 5 13 17 18 26 6 9 53 75 105 148 52 73 100 139 105 148 12 19 16
25 53 74 15 20 65 91 112 158 47 68 91 128 98 136 6 7 12 17 12 22 0 5 9 17
20 27 11 10 20 24 20 32 0 7 4 13 9 13 5 0 20 17 32 38 13 20 27 42 32 47 4 6
52 73 107 150 54 77 102 145 107 151 4 5 13 17 18 26 6 9 65 94 133 189 162
229 155 219 170 234 6 8 12 18 12 24 0 6 5 11 10 11 6 0 10 5 10 11 0 6 11 25
25 43 14 17 29 36 34 42 4 5 21 30 37 55 16 24 31 46 34 49 3 3 32 43 65 90
71 103 86 121 95 115 4 -3 4 -24 0 -47z"/>
<path d="M5378 4705 c-2 -2 -86 -5 -186 -5 -100 -1 -184 -6 -187 -11 -4 -5
-14 -9 -24 -9 -29 0 -102 -71 -126 -123 l-23 -49 1 -922 2 -921 22 -46 c27
-57 90 -109 149 -124 30 -7 245 -11 676 -10 589 1 635 2 667 19 52 28 95 71
122 123 l24 48 0 920 0 920 -23 46 c-27 56 -73 99 -129 122 -36 14 -96 16
-493 17 -249 0 -456 2 -460 5 -4 2 -9 2 -12 0z"/>
</g>
</svg>
